/* XPM */
static char * gea_16_xpm[] = {
"16 16 92 2",
"  	c None",
". 	c #FDB414",
"+ 	c #FFDE00",
"@ 	c #F58220",
"# 	c #F7941D",
"$ 	c #FAA71A",
"% 	c #F8AA1A",
"& 	c #FCB415",
"* 	c #FEC40D",
"= 	c #FBD305",
"- 	c #FBE105",
"; 	c #F26322",
"> 	c #F07022",
", 	c #F17A21",
"' 	c #F19020",
") 	c #F3A01D",
"! 	c #FAB615",
"~ 	c #F8B914",
"{ 	c #F8D009",
"] 	c #F9E007",
"^ 	c #FBF003",
"/ 	c #EF4323",
"( 	c #EF5B23",
"_ 	c #F07322",
": 	c #E7C21D",
"< 	c #EFD312",
"[ 	c #EFE011",
"} 	c #ED4023",
"| 	c #ED5523",
"1 	c #EB6824",
"2 	c #D3C628",
"3 	c #D1D126",
"4 	c #CDDC28",
"5 	c #ED1D24",
"6 	c #EC3824",
"7 	c #E75C25",
"8 	c #C2C832",
"9 	c #ABC53A",
"0 	c #A3CC3A",
"a 	c #EA3226",
"b 	c #E64A28",
"c 	c #E75E26",
"d 	c #AFB73A",
"e 	c #99BA42",
"f 	c #7EBD45",
"g 	c #DF202F",
"h 	c #E44A29",
"i 	c #E2542A",
"j 	c #94AC48",
"k 	c #7DAE4C",
"l 	c #2AAB51",
"m 	c #D0243A",
"n 	c #D74033",
"o 	c #CB4A39",
"p 	c #D26233",
"q 	c #8D994D",
"r 	c #88A04D",
"s 	c #009A5C",
"t 	c #BA284A",
"u 	c #B74A48",
"v 	c #C2593F",
"w 	c #729556",
"x 	c #48975D",
"y 	c #00995D",
"z 	c #A13C59",
"A 	c #9F4958",
"B 	c #A55E50",
"C 	c #A16750",
"D 	c #9D7051",
"E 	c #987851",
"F 	c #847F59",
"G 	c #7F8758",
"H 	c #5A8961",
"I 	c #008D6A",
"J 	c #843C69",
"K 	c #824867",
"L 	c #7F5267",
"M 	c #7D5A66",
"N 	c #7F6C61",
"O 	c #7B7161",
"P 	c #737B60",
"Q 	c #687B64",
"R 	c #23846C",
"S 	c #00886D",
"T 	c #664776",
"U 	c #5D4779",
"V 	c #565778",
"W 	c #525F77",
"X 	c #4A6775",
"Y 	c #456E74",
"Z 	c #137777",
"` 	c #028074",
"          . .     + +           ",
"          . .     + +           ",
"                                ",
"                                ",
"        @ # $ % & * = -         ",
"      ; > , ' ) ! ~ { ] ^       ",
"    / ( _           : < [       ",
"    } | 1             2 3 4     ",
"  5 6 7                 8 9 0   ",
"  a b c                 d e f   ",
"  g h i                 j k l   ",
"  m n o p             q r s     ",
"    t u v             w x y     ",
"      z A B C D E F G H I       ",
"      J K L M N O P Q R S       ",
"        T U V W X Y Z `         "};
