/* XPM */
static char * gea_32_xpm[] = {
"32 32 347 2",
"  	c None",
". 	c #FDB414",
"+ 	c #FFDE00",
"@ 	c #F7911D",
"# 	c #F7961D",
"$ 	c #F89B1C",
"% 	c #FAA51A",
"& 	c #FCAF17",
"* 	c #FCAE17",
"= 	c #FDB614",
"- 	c #FDBB12",
"; 	c #FFC30D",
"> 	c #FEC90A",
", 	c #FFD005",
"' 	c #FFDA00",
") 	c #FFE000",
"! 	c #FFE600",
"~ 	c #F5831F",
"{ 	c #F68D1E",
"] 	c #F6941D",
"^ 	c #F89C1C",
"/ 	c #F9A31B",
"( 	c #F9A71A",
"_ 	c #FAB017",
": 	c #FCB714",
"< 	c #FDBE11",
"[ 	c #FEC40D",
"} 	c #FDCC09",
"| 	c #FAD207",
"1 	c #FDD702",
"2 	c #FEE601",
"3 	c #FFED00",
"4 	c #F47521",
"5 	c #F57B20",
"6 	c #F58220",
"7 	c #F5861F",
"8 	c #F68E1E",
"9 	c #F6991D",
"0 	c #F9AB19",
"a 	c #FAB117",
"b 	c #FBB813",
"c 	c #FCBE11",
"d 	c #FBC70D",
"e 	c #F8CE0B",
"f 	c #FBD305",
"g 	c #FBE705",
"h 	c #FBF003",
"i 	c #F26522",
"j 	c #F36C21",
"k 	c #F47421",
"l 	c #F27A21",
"m 	c #F27C21",
"n 	c #F3871F",
"o 	c #F5921E",
"p 	c #F3911F",
"q 	c #F49B1D",
"r 	c #F5A41C",
"s 	c #F6AB1A",
"t 	c #F6B317",
"u 	c #F8B914",
"v 	c #F7C113",
"w 	c #F5CA0F",
"x 	c #F8D009",
"y 	c #F9DA07",
"z 	c #FAE606",
"A 	c #F26322",
"B 	c #F16622",
"C 	c #F26E22",
"D 	c #F07022",
"E 	c #F17A21",
"F 	c #F18221",
"G 	c #F18B20",
"H 	c #F2931F",
"I 	c #F49C1D",
"J 	c #F3A01D",
"K 	c #F4A91C",
"L 	c #F4B318",
"M 	c #F3C811",
"N 	c #F3CB0F",
"O 	c #F6D40B",
"P 	c #F2DA0F",
"Q 	c #F2E30E",
"R 	c #F2EB0B",
"S 	c #EF4A23",
"T 	c #F15C22",
"U 	c #F05C23",
"V 	c #F06523",
"W 	c #F07322",
"X 	c #F07B22",
"Y 	c #F18321",
"Z 	c #EDBC1B",
"` 	c #EFC913",
" .	c #EFD013",
"..	c #EFD713",
"+.	c #EFE011",
"@.	c #E4DE18",
"#.	c #EF4323",
"$.	c #EF5123",
"%.	c #EE5723",
"&.	c #ED6623",
"*.	c #ED6C23",
"=.	c #ED7423",
"-.	c #E7C21D",
";.	c #EACB19",
">.	c #E6D01D",
",.	c #E5D71A",
"'.	c #E2E018",
").	c #D3D924",
"!.	c #EE3623",
"~.	c #ED4423",
"{.	c #EC4E24",
"].	c #EB5A24",
"^.	c #EB6124",
"/.	c #EB6824",
"(.	c #E3C121",
"_.	c #D9C325",
":.	c #E0CC21",
"<.	c #DED120",
"[.	c #D0D227",
"}.	c #CFD727",
"|.	c #CDDC28",
"1.	c #ED3724",
"2.	c #EC4624",
"3.	c #EB5024",
"4.	c #E96424",
"5.	c #E96624",
"6.	c #D3C728",
"7.	c #CEC72B",
"8.	c #CBCD2D",
"9.	c #C8D22E",
"0.	c #B8D432",
"a.	c #ED2B24",
"b.	c #ED3824",
"c.	c #EC4524",
"d.	c #EB4C24",
"e.	c #E85D25",
"f.	c #E76525",
"g.	c #CCC02E",
"h.	c #C7C430",
"i.	c #C2C832",
"j.	c #B1C638",
"k.	c #AAC939",
"l.	c #A3CC3A",
"m.	c #ED1D24",
"n.	c #EC2D24",
"o.	c #EC3D24",
"p.	c #EA4A24",
"q.	c #E95424",
"r.	c #E75C25",
"s.	c #C2BB33",
"t.	c #BDBF36",
"u.	c #AFBE3A",
"v.	c #A9C23A",
"w.	c #97C43F",
"x.	c #8DC540",
"y.	c #EB1C26",
"z.	c #EA2C26",
"A.	c #EA3926",
"B.	c #E74A27",
"C.	c #E75426",
"D.	c #E75E26",
"E.	c #AFB73A",
"F.	c #9DB841",
"G.	c #99BA42",
"H.	c #8DBC44",
"I.	c #7EBD45",
"J.	c #6ABD45",
"K.	c #E92A27",
"L.	c #E83627",
"M.	c #E74226",
"N.	c #E64A28",
"O.	c #E55327",
"P.	c #E35B28",
"Q.	c #9DB243",
"R.	c #89AE49",
"S.	c #7BB04B",
"T.	c #78B649",
"U.	c #3AB04E",
"V.	c #41B649",
"W.	c #E71D29",
"X.	c #E63329",
"Y.	c #E44429",
"Z.	c #E44A29",
"`.	c #DD522E",
" +	c #DB582E",
".+	c #94AC48",
"++	c #85AA4B",
"@+	c #7DAE4C",
"#+	c #47AA52",
"$+	c #4FB04E",
"%+	c #27B04E",
"&+	c #DF202F",
"*+	c #DE2C2F",
"=+	c #DD372F",
"-+	c #DF4A2D",
";+	c #DB4A2F",
">+	c #D95330",
",+	c #92A549",
"'+	c #8DA64B",
")+	c #83A74C",
"!+	c #50A355",
"~+	c #35A456",
"{+	c #2EAA52",
"]+	c #D82C33",
"^+	c #D83733",
"/+	c #D74033",
"(+	c #D84A31",
"_+	c #D65332",
":+	c #D45D33",
"<+	c #8E9D4C",
"[+	c #88A04D",
"}+	c #66A353",
"|+	c #429E58",
"1+	c #009F59",
"2+	c #00A456",
"3+	c #CF2A3A",
"4+	c #CE363A",
"5+	c #CD413A",
"6+	c #CB4A39",
"7+	c #CF5137",
"8+	c #C9563A",
"9+	c #CA6138",
"0+	c #8D994D",
"a+	c #719756",
"b+	c #6B9C55",
"c+	c #5B9E56",
"d+	c #3E9D59",
"e+	c #009A5C",
"f+	c #BA274A",
"g+	c #C33943",
"h+	c #BB4048",
"i+	c #C74A3E",
"j+	c #C4523E",
"k+	c #C2593F",
"l+	c #859551",
"m+	c #799754",
"n+	c #639858",
"o+	c #48975D",
"p+	c #009661",
"q+	c #00995D",
"r+	c #B3354E",
"s+	c #B93D49",
"t+	c #B74A48",
"u+	c #B55248",
"v+	c #B35849",
"w+	c #B15F48",
"x+	c #8A8D52",
"y+	c #798E57",
"z+	c #65935B",
"A+	c #529060",
"B+	c #019164",
"C+	c #A32D59",
"D+	c #A13859",
"E+	c #A04158",
"F+	c #9F4B58",
"G+	c #A95650",
"H+	c #9B5758",
"I+	c #7F8758",
"J+	c #7A8959",
"K+	c #718C5A",
"L+	c #5B8961",
"M+	c #548F60",
"N+	c #008D6A",
"O+	c #923661",
"P+	c #99415D",
"Q+	c #9F4958",
"R+	c #9D5058",
"S+	c #9B5658",
"T+	c #985D58",
"U+	c #976158",
"V+	c #946458",
"W+	c #816762",
"X+	c #836D5F",
"Y+	c #8C7259",
"Z+	c #8A7759",
"`+	c #877B59",
" @	c #827F59",
".@	c #6D7E61",
"+@	c #71845D",
"@@	c #5E8562",
"#@	c #5A8961",
"$@	c #1E8C67",
"%@	c #632F7C",
"&@	c #843C69",
"*@	c #824268",
"=@	c #824867",
"-@	c #8B5062",
";@	c #7F5467",
">@	c #7D5A66",
",@	c #856161",
"'@	c #7F6C61",
")@	c #7C6F61",
"!@	c #7A7361",
"~@	c #777660",
"{@	c #737B60",
"]@	c #687B64",
"^@	c #638163",
"/@	c #2B806D",
"(@	c #23846C",
"_@	c #00886D",
":@	c #62337C",
"<@	c #643D79",
"[@	c #7B486B",
"}@	c #794F6B",
"|@	c #76566B",
"1@	c #6B596F",
"2@	c #725E6B",
"3@	c #6F626B",
"4@	c #64656F",
"5@	c #61696E",
"6@	c #696D69",
"7@	c #657169",
"8@	c #607868",
"9@	c #3E7770",
"0@	c #507C6B",
"a@	c #27806E",
"b@	c #17836E",
"c@	c #048470",
"d@	c #37388D",
"e@	c #664776",
"f@	c #5D4779",
"g@	c #5B4D79",
"h@	c #595278",
"i@	c #565778",
"j@	c #5A5E74",
"k@	c #506276",
"l@	c #4A6775",
"m@	c #486A75",
"n@	c #456E74",
"o@	c #407173",
"p@	c #397672",
"q@	c #2F7972",
"r@	c #00797A",
"s@	c #028074",
"t@	c #254090",
"u@	c #494782",
"v@	c #174B8D",
"w@	c #0E508C",
"x@	c #05558B",
"y@	c #115988",
"z@	c #1C5D84",
"A@	c #0D6085",
"B@	c #156482",
"C@	c #226C7B",
"D@	c #1E707A",
"E@	c #1F7378",
"F@	c #077778",
"                    . . .           + + + +                     ",
"                  . . . . .         + + + +                     ",
"                  . . . . .         + + + + +                   ",
"                  . . . . .         + + + +                     ",
"                      .               + +                       ",
"                                                                ",
"                                                                ",
"                  @ # $ % & * = - ; > , ' ) !                   ",
"                ~ @ { ] ^ / ( _ : < [ } | 1 2 3                 ",
"              4 5 6 7 8 # 9 ( 0 a b c d e f 2 g h               ",
"            i j k l m n o p q r s t u v w x y z h               ",
"            A B C D E F G H I J K t L v M N O P Q R             ",
"          S T U V W X Y                 Z `  ...+.@.            ",
"          #.$.%.&.*.=.                    -.;.>.,.'.).          ",
"        !.~.{.].^./.                      (._.:.<.[.}.|.        ",
"        1.2.3.].4.5.                        _.6.7.8.9.0.        ",
"      a.b.c.d.e.f.                            g.h.i.j.k.l.      ",
"    m.n.o.p.q.r.                              s.t.u.v.w.x.      ",
"    y.z.A.B.C.D.                                E.F.G.H.I.J.    ",
"    K.L.M.N.O.P.                                Q.R.S.T.U.V.    ",
"    W.X.Y.Z.`. +                                .+++@+#+$+%+    ",
"    &+*+=+-+;+>+                              ,+'+)+!+~+{+      ",
"      ]+^+/+(+_+:+                            <+[+}+|+1+2+      ",
"      3+4+5+6+7+8+9+                        0+a+b+c+d+e+        ",
"        f+g+h+i+j+k+                        l+m+n+o+p+q+        ",
"          r+s+t+u+v+w+                    x+y+z+A+B+p+          ",
"          C+D+E+F+G+H+                  I+J+K+L+M+N+            ",
"            O+P+Q+R+S+T+U+V+W+X+Y+Z+`+ @.@+@@@#@$@N+            ",
"            %@&@*@=@-@;@>@,@W+'@)@!@~@{@]@^@/@(@_@              ",
"              :@<@[@}@|@1@2@3@4@5@6@7@8@9@0@a@b@c@              ",
"                d@e@f@g@h@i@j@k@l@m@n@o@p@q@r@s@                ",
"                  t@u@v@w@x@y@z@A@B@C@D@E@F@r@                  "};
